# xmcd CD database file
#
# Track frame offsets:
#	150
#	21567
#	41542
#
# Disc length: 750 seconds
#
# Revision: 0
# Processed by: cddbd v1.5.1PL0 Copyright (c) Steve Scherf et al.
# Submitted via: CDex 1.51
#
DISCID=2002ec03
DTITLE=藤木直人 - 天使ノ虹
DYEAR=2003
DGENRE=J-Pop
TTITLE0=天使ノ虹
TTITLE1=こんにちはとさよならの間で
TTITLE2=生きなくちゃっ
EXTD=YEAR: 2003
EXTT0=
EXTT1=
EXTT2=
PLAYORDER=
